<?xml version="1.0" standalone="no"?>
<!DOCTYPE svg PUBLIC "-//W3C//DTD SVG 1.1//EN" 
  "http://www.w3.org/Graphics/SVG/1.1/DTD/svg11.dtd">
<svg width="300" height="300" viewBox="0 0 7 7" xmlns="http://www.w3.org/2000/svg" xmlns:xlink= "http://www.w3.org/1999/xlink">
                        <rect x="0"  y="0" height="1" width="1" fill="#6C97BB"/>
                    <rect x="6"  y="0" height="1" width="1" fill="#6C97BB"/>
                    <rect x="1"  y="0" height="1" width="1" fill="#04BC1B"/>
                    <rect x="5"  y="0" height="1" width="1" fill="#04BC1B"/>
                    <rect x="2"  y="0" height="1" width="1" fill="#04C677"/>
                    <rect x="4"  y="0" height="1" width="1" fill="#04C677"/>
                    <rect x="3"  y="0" height="1" width="1" fill="#04BC1B"/>
                                <rect x="0"  y="1" height="1" width="1" fill="#6C97BB"/>
                    <rect x="6"  y="1" height="1" width="1" fill="#6C97BB"/>
                    <rect x="1"  y="1" height="1" width="1" fill="#04BC1B"/>
                    <rect x="5"  y="1" height="1" width="1" fill="#04BC1B"/>
                    <rect x="2"  y="1" height="1" width="1" fill="#6C97BB"/>
                    <rect x="4"  y="1" height="1" width="1" fill="#6C97BB"/>
                    <rect x="3"  y="1" height="1" width="1" fill="#04C677"/>
                                <rect x="0"  y="2" height="1" width="1" fill="#04C677"/>
                    <rect x="6"  y="2" height="1" width="1" fill="#04C677"/>
                    <rect x="1"  y="2" height="1" width="1" fill="#6C97BB"/>
                    <rect x="5"  y="2" height="1" width="1" fill="#6C97BB"/>
                    <rect x="2"  y="2" height="1" width="1" fill="#04BC1B"/>
                    <rect x="4"  y="2" height="1" width="1" fill="#04BC1B"/>
                    <rect x="3"  y="2" height="1" width="1" fill="#04BC1B"/>
                                <rect x="0"  y="3" height="1" width="1" fill="#04C677"/>
                    <rect x="6"  y="3" height="1" width="1" fill="#04C677"/>
                    <rect x="1"  y="3" height="1" width="1" fill="#6C97BB"/>
                    <rect x="5"  y="3" height="1" width="1" fill="#6C97BB"/>
                    <rect x="2"  y="3" height="1" width="1" fill="#04BC1B"/>
                    <rect x="4"  y="3" height="1" width="1" fill="#04BC1B"/>
                    <rect x="3"  y="3" height="1" width="1" fill="#04C677"/>
                                <rect x="0"  y="4" height="1" width="1" fill="#04C677"/>
                    <rect x="6"  y="4" height="1" width="1" fill="#04C677"/>
                    <rect x="1"  y="4" height="1" width="1" fill="#6C97BB"/>
                    <rect x="5"  y="4" height="1" width="1" fill="#6C97BB"/>
                    <rect x="2"  y="4" height="1" width="1" fill="#04C677"/>
                    <rect x="4"  y="4" height="1" width="1" fill="#04C677"/>
                    <rect x="3"  y="4" height="1" width="1" fill="#6C97BB"/>
                                <rect x="0"  y="5" height="1" width="1" fill="#04BC1B"/>
                    <rect x="6"  y="5" height="1" width="1" fill="#04BC1B"/>
                    <rect x="1"  y="5" height="1" width="1" fill="#04BC1B"/>
                    <rect x="5"  y="5" height="1" width="1" fill="#04BC1B"/>
                    <rect x="2"  y="5" height="1" width="1" fill="#04BC1B"/>
                    <rect x="4"  y="5" height="1" width="1" fill="#04BC1B"/>
                    <rect x="3"  y="5" height="1" width="1" fill="#04C677"/>
                                <rect x="0"  y="6" height="1" width="1" fill="#04BC1B"/>
                    <rect x="6"  y="6" height="1" width="1" fill="#04BC1B"/>
                    <rect x="1"  y="6" height="1" width="1" fill="#04C677"/>
                    <rect x="5"  y="6" height="1" width="1" fill="#04C677"/>
                    <rect x="2"  y="6" height="1" width="1" fill="#04BC1B"/>
                    <rect x="4"  y="6" height="1" width="1" fill="#04BC1B"/>
                    <rect x="3"  y="6" height="1" width="1" fill="#04BC1B"/>
            </svg>
